<?xml version="1.0" standalone="no"?>
<!DOCTYPE svg PUBLIC "-//W3C//DTD SVG 20010904//EN"
 "http://www.w3.org/TR/2001/REC-SVG-20010904/DTD/svg10.dtd">
<svg version="1.0" xmlns="http://www.w3.org/2000/svg"
 width="1200.000000pt" height="1200.000000pt" viewBox="0 0 1200.000000 1200.000000"
 preserveAspectRatio="xMidYMid meet">
<metadata>
Created by potrace 1.11, written by Peter Selinger 2001-2013
</metadata>
<g transform="translate(0.000000,1200.000000) scale(0.100000,-0.100000)"
fill="#000000" stroke="none">
<path d="M5735 8689 c-663 -51 -1287 -277 -1829 -663 -120 -86 -321 -253 -396
-330 l-55 -56 1270 -1270 c699 -699 1277 -1270 1285 -1270 8 0 584 569 1280
1265 l1265 1265 -60 61 c-80 82 -279 248 -401 335 -689 490 -1528 726 -2359
663z m114 -713 c8 -10 6 -36 -8 -105 l-18 -91 177 0 177 0 -18 91 c-20 97 -16
119 22 119 22 0 34 -21 43 -75 4 -22 12 -61 18 -87 l10 -48 183 0 c154 0 186
-3 199 -16 14 -14 16 -68 16 -450 l0 -434 70 0 70 0 0 -40 0 -40 -175 0 c-99
0 -175 -4 -175 -9 0 -5 14 -81 30 -168 17 -87 29 -169 28 -183 -3 -28 -38 -39
-56 -18 -6 7 -26 94 -44 193 l-34 180 -162 3 -161 2 -3 -131 c-3 -113 -6 -133
-20 -143 -13 -8 -23 -8 -35 0 -15 10 -18 30 -21 143 l-3 131 -161 -2 -162 -3
-34 -180 c-18 -99 -38 -186 -44 -193 -18 -21 -53 -10 -56 18 -1 14 11 96 28
183 16 87 30 163 30 168 0 5 -76 9 -175 9 l-175 0 0 40 0 40 70 0 70 0 0 434
c0 382 2 436 16 450 13 13 45 16 199 16 l183 0 10 48 c6 26 14 65 18 87 3 22
11 48 16 58 10 20 41 22 57 3z"/>
<path d="M5420 7290 l0 -410 580 0 580 0 0 410 0 410 -580 0 -580 0 0 -410z
m250 269 c17 -30 -11 -69 -50 -69 -53 0 -68 73 -21 97 29 14 55 4 71 -28z
m655 -290 c92 -121 170 -229 172 -240 13 -49 15 -49 -496 -49 -494 0 -501 1
-501 41 0 9 66 97 146 195 174 214 193 234 214 234 9 0 38 -29 64 -65 27 -36
52 -65 56 -63 4 2 38 40 74 86 40 48 74 82 85 82 12 0 75 -75 186 -221z"/>
<path d="M6009 7238 c-68 -83 -128 -158 -132 -165 -7 -11 40 -13 253 -13 l260
0 -122 165 c-68 90 -126 164 -129 165 -4 0 -62 -68 -130 -152z"/>
<path d="M5780 7264 c-40 -49 -93 -112 -117 -141 -24 -28 -43 -54 -43 -57 0
-3 34 -6 75 -6 l75 0 79 97 c87 104 86 100 34 162 l-29 34 -74 -89z"/>
<path d="M3354 7538 c-134 -141 -384 -471 -384 -509 0 -8 433 -445 962 -971
l963 -957 495 -1 495 0 -1240 1240 c-682 682 -1242 1240 -1245 1240 -3 0 -24
-19 -46 -42z"/>
<path d="M7370 6335 l-1235 -1235 500 0 500 0 957 958 957 957 -62 91 c-111
163 -353 464 -375 464 -4 0 -563 -556 -1242 -1235z"/>
<path d="M2894 6919 c-53 -84 -180 -345 -237 -489 l-58 -144 593 -593 593
-593 498 2 497 3 -929 929 -929 929 -28 -44z"/>
<path d="M8165 6020 l-920 -920 500 0 500 0 580 580 579 579 -18 58 c-32 102
-144 354 -219 490 -40 73 -74 133 -77 133 -3 0 -419 -414 -925 -920z"/>
<path d="M2541 6093 c-77 -269 -121 -542 -137 -855 l-7 -138 639 0 639 0 -550
550 c-302 303 -550 550 -551 550 -1 0 -15 -48 -33 -107z"/>
<path d="M8885 5640 l-540 -540 628 0 627 0 0 48 c0 169 -34 474 -76 679 -27
131 -81 333 -92 345 -4 4 -250 -235 -547 -532z"/>
</g>
</svg>
